<svg width="128" height="128" viewBox="0 0 128 128" fill="none" xmlns="http://www.w3.org/2000/svg">
<rect width="128" height="128" rx="25" fill="#161B22"/>
<rect x="0.5" y="0.5" width="127" height="127" rx="24.5" stroke="white" stroke-opacity="0.25"/>
<path fill-rule="evenodd" clip-rule="evenodd" d="M64 27C43.005 27 26 43.9763 26 64.9359C26 81.7225 36.8775 95.901 51.9825 100.928C53.8825 101.259 54.595 100.121 54.595 99.1256C54.595 98.2246 54.5475 95.2371 54.5475 92.06C45 93.8146 42.53 89.7364 41.77 87.6026C41.3425 86.5119 39.49 83.1451 37.875 82.2441C36.545 81.5328 34.645 79.7783 37.8275 79.7309C40.82 79.6834 42.9575 82.4812 43.67 83.6193C47.09 89.3571 52.5525 87.7448 54.7375 86.749C55.07 84.2832 56.0675 82.6235 57.16 81.6751C48.705 80.7267 39.87 77.4547 39.87 62.9442C39.87 58.8187 41.3425 55.4045 43.765 52.749C43.385 51.8006 42.055 47.9121 44.145 42.696C44.145 42.696 47.3275 41.7002 54.595 46.5844C57.635 45.7308 60.865 45.3041 64.095 45.3041C67.325 45.3041 70.555 45.7308 73.595 46.5844C80.8625 41.6527 84.045 42.696 84.045 42.696C86.135 47.9121 84.805 51.8006 84.425 52.749C86.8475 55.4045 88.32 58.7713 88.32 62.9442C88.32 77.5021 79.4375 80.7267 70.9825 81.6751C72.36 82.8606 73.5475 85.1367 73.5475 88.6932C73.5475 93.7671 73.5 97.8452 73.5 99.1256C73.5 100.121 74.2125 101.307 76.1125 100.928C83.6562 98.3852 90.2113 93.5451 94.8552 87.0886C99.4991 80.6322 101.998 72.8844 102 64.9359C102 43.9763 84.995 27 64 27Z" fill="white" fill-opacity="0.25"/>
</svg>
