<svg width="24" height="27" fill="none" xmlns="http://www.w3.org/2000/svg"><g clip-path="url(#prefix__clip0_12_98)"><path d="M23.695 20.25c.188-.326.305-.694.305-1.023V7.773c0-.33-.117-.697-.305-1.023L12 13.5l11.695 6.75z" fill="#00599C"/><path d="M13.04 26.753l9.92-5.727c.287-.165.546-.45.735-.776L12 13.5.305 20.25c.189.326.448.611.734.776l9.922 5.727c.571.33 1.507.33 2.078 0z" fill="#004482"/><path d="M23.695 6.75c-.189-.326-.448-.611-.734-.776L13.039.247c-.571-.33-1.507-.33-2.078 0L1.039 5.974C.468 6.304 0 7.114 0 7.774v11.453c0 .33.117.697.305 1.023L12 13.5l11.695-6.75z" fill="#659AD2"/><path d="M12 21.498c-4.411 0-8-3.588-8-7.998s3.589-7.998 8-7.998A8.03 8.03 0 0118.928 9.5L15.466 11.5a4.017 4.017 0 00-3.466-2c-2.206 0-4 1.794-4 3.999a4.004 4.004 0 004 3.999 4.017 4.017 0 003.466-2l3.462 2.002A8.03 8.03 0 0112 21.498z" fill="#fff"/><path d="M20 13.056h-.89v-.889h-.888v.889h-.889v.888h.889v.889h.888v-.889H20v-.888zM23.333 13.056h-.89v-.889h-.888v.889h-.888v.888h.888v.889h.889v-.889h.889v-.888z" fill="#fff"/></g><defs><clipPath id="prefix__clip0_12_98"><path fill="#fff" d="M0 0h24v27H0z"/></clipPath></defs></svg>