<svg width="27" height="27" fill="none" xmlns="http://www.w3.org/2000/svg"><path d="M3.763 24.301L1.596 0h23.808l-2.17 24.297L13.486 27l-9.722-2.699z" fill="#264DE4"/><path d="M21.378 22.75L23.23 1.987H13.5v22.947l7.878-2.184z" fill="#2965F1"/><path d="M6.563 11l.267 2.98h6.67V11H6.563zm-.265-3.052H13.5v-2.98H6.027l.27 2.98zM13.5 18.74l-.013.004-3.32-.896-.212-2.377H6.964l.417 4.68 6.105 1.694.014-.004v-3.1z" fill="#EBEBEB"/><path d="M13.49 11v2.98h3.67l-.346 3.866-3.324.897v3.1l6.11-1.693.045-.503.7-7.847.073-.8.538-6.033H13.49v2.98h4.2L17.418 11H13.49z" fill="#fff"/></svg>