<svg width="27" height="27" fill="none" xmlns="http://www.w3.org/2000/svg"><g clip-path="url(#prefix__clip0_12_121)"><path d="M5.506 21.494l-4.619-4.62C.34 16.314 0 15.52 0 14.744c0-.36.202-.921.355-1.243L4.62 4.62l.887 16.874z" fill="#01579B"/><path d="M21.317 5.506L16.697.887C16.296.482 15.456 0 14.746 0c-.612 0-1.211.123-1.598.355L4.62 4.62l16.696.887zM11.013 27h11.191v-4.796l-8.349-2.666-7.638 2.666L11.013 27z" fill="#40C4FF"/><path d="M4.62 19.006c0 1.426.178 1.775.886 2.488l.711.71h15.987l-7.815-8.88-9.77-8.705v14.387z" fill="#29B6F6"/><path d="M18.83 4.617H4.62l17.584 17.585H27V11.19l-5.685-5.685c-.798-.8-1.507-.887-2.485-.887z" fill="#01579B"/><path opacity=".2" d="M5.685 21.67c-.71-.712-.887-1.415-.887-2.664V4.796l-.177-.177v14.387C4.62 20.255 4.62 20.6 5.685 21.67z" fill="#fff"/><path opacity=".2" d="M26.823 11.013v11.013h-4.795l.176.178H27V11.19l-.177-.177z" fill="#263238"/><path opacity=".2" d="M21.317 5.506c-.881-.881-1.602-.887-2.664-.887H4.621l.177.177h13.855c.53 0 1.868-.09 2.664.71z" fill="#fff"/><path opacity=".2" d="M26.823 11.013l-5.506-5.507-4.62-4.619C16.296.482 15.456 0 14.746 0c-.612 0-1.211.123-1.598.355L4.62 4.62.357 13.5c-.153.324-.355.885-.355 1.243 0 .776.341 1.568.887 2.132L5.145 21.1c.101.125.22.252.361.393l.177.176.532.532 4.62 4.62.176.176H22.2v-4.796h4.796V11.19l-.173-.177z" fill="url(#prefix__paint0_radial_12_121)"/></g><defs><radialGradient id="prefix__paint0_radial_12_121" cx="0" cy="0" r="1" gradientUnits="userSpaceOnUse" gradientTransform="translate(13.499 13.5) scale(13.498)"><stop stop-color="#fff" stop-opacity=".1"/><stop offset="1" stop-color="#fff" stop-opacity="0"/></radialGradient><clipPath id="prefix__clip0_12_121"><path fill="#fff" d="M0 0h27v27H0z"/></clipPath></defs></svg>