<svg width="27" height="21" fill="none" xmlns="http://www.w3.org/2000/svg"><g clip-path="url(#prefix__clip0_12_57)"><path d="M26.56 8.73c-.661-.435-2.4-.62-3.665-.288-.068-1.23-.718-2.268-1.906-3.173l-.44-.288-.293.432c-.576.855-.819 1.994-.733 3.03.068.637.295 1.354.733 1.875-1.646.933-3.163.72-9.881.72H.002c-.03 1.483.214 4.335 2.07 6.657.204.256.43.504.673.743 1.509 1.477 3.789 2.56 7.198 2.562 5.2.005 9.655-2.742 12.366-9.384.892.014 3.246.156 4.398-2.02.028-.036.293-.577.293-.577l-.44-.288zM6.773 7.2H3.855v2.851h2.917v-2.85zm3.768 0H7.623v2.851h2.917v-2.85zm3.769 0h-2.917v2.851h2.917v-2.85zm3.768 0H15.16v2.851h2.917v-2.85zm-15.073 0H.086v2.851h2.917v-2.85h.001zm3.768-3.6H3.856v2.85h2.916V3.6zm3.769 0H7.624v2.85h2.917V3.6zm3.768 0h-2.916v2.85h2.916V3.6zm0-3.6H11.39v2.85h2.917V0z" fill="#1D63ED"/></g><defs><clipPath id="prefix__clip0_12_57"><path fill="#fff" d="M0 0h27v21H0z"/></clipPath></defs></svg>