<svg xmlns="http://www.w3.org/2000/svg" width="400" height="200" fill="none" style="animation:1.5s ease-in-out fadeIn"><style>:root{--primary-color: #000;--background-color: rgba(255, 255, 255, 0);--base-delay: 0.2s;--animation-properties: 3s ease-in-out infinite fadeInOut;--color-calendar-graph-day-level-1: #0e4429;--color-calendar-graph-day-level-2: #006d32;--color-calendar-graph-day-level-3: #26a641;--color-calendar-graph-day-level-4: #39d353 }@keyframes fadeInOut{0%,to{fill-opacity:.1}50%{fill-opacity:.75}}@keyframes fadeIn{from{opacity:0}to{opacity:1}}@media (prefers-color-scheme:dark){:root{--primary-color: #fff;--background-color: rgba(255, 255, 255, 0) }}.prefix__fade-animation{fill-opacity:0;animation:var(--animation-properties);animation-delay:calc(var(--base-delay)*var(--order))}.prefix__contribution-graph{fill:var(--color-calendar-graph-day-level-1)}.prefix__contribution-graph:nth-child(4n+3){fill:var(--color-calendar-graph-day-level-3)}.prefix__contribution-graph:nth-child(4n+4){fill:var(--color-calendar-graph-day-level-4)}#prefix__icons-group >:nth-of-type(2){transform:translate(50px,-5px)}#prefix__icons-group >:nth-of-type(3){transform:translate(100px,15px)}#prefix__icons-group >:nth-of-type(4){transform:translate(3px,63px)}#prefix__icons-group >:nth-of-type(5){transform:translate(53px,43px)}#prefix__icons-group >:nth-of-type(6){transform:translate(105px,58px)}#prefix__icons-group >:nth-of-type(n+7){display:none}</style><rect width="399" height="199" x=".5" y=".5" stroke="var(--primary-color)" stroke-opacity=".25" rx="19.5"/><path fill="var(--primary-color)" fill-opacity=".02" fill-rule="evenodd" d="M140.5 14C96.024 14 60 50.024 60 94.5c0 35.621 23.043 65.708 55.042 76.374 4.025.705 5.534-1.71 5.534-3.823 0-1.912-.1-8.252-.1-14.993-20.226 3.723-25.458-4.931-27.068-9.459-.906-2.315-4.83-9.459-8.252-11.371-2.817-1.509-6.842-5.232-.1-5.333 6.339-.101 10.867 5.836 12.377 8.251 7.245 12.176 18.816 8.755 23.445 6.642.705-5.233 2.818-8.755 5.132-10.767-17.911-2.013-36.628-8.956-36.628-39.747 0-8.755 3.12-16 8.252-21.635-.805-2.012-3.623-10.263.805-21.332 0 0 6.742-2.113 22.137 8.251 6.44-1.811 13.283-2.717 20.125-2.717s13.685.906 20.125 2.717c15.396-10.465 22.138-8.251 22.138-8.251 4.427 11.069 1.61 19.32.805 21.332 5.132 5.635 8.251 12.78 8.251 21.635 0 30.892-18.817 37.734-36.728 39.747 2.918 2.515 5.434 7.345 5.434 14.892 0 10.767-.101 19.421-.101 22.138 0 2.113 1.509 4.628 5.534 3.823a80.62 80.62 0 0039.705-29.366A80.63 80.63 0 00221 94.5c0-44.476-36.024-80.5-80.5-80.5" clip-rule="evenodd"/><path fill="var(--primary-color)" d="M48.08 39.232H36.02V28.648H31.7v25.38h4.32V43.192h12.06v10.836h4.32v-25.38h-4.32zm11.614-6.588c1.476 0 2.556-1.044 2.556-2.52s-1.08-2.556-2.556-2.556c-1.512 0-2.592 1.08-2.592 2.556s1.08 2.52 2.592 2.52m2.052 21.384v-18.72h-4.14v18.72zm20.812-3.6c-1.404 0-2.088-.684-2.088-2.088v-9.432h5.58v-3.6h-5.58v-5.4h-3.096l-1.044 5.4h-3.06v3.6h3.06v9.432c0 3.672 2.124 5.688 6.228 5.688h3.492l.36-3.6zm11.426 3.6V43.192c0-2.664 1.8-4.536 4.284-4.536 2.412 0 4.104 1.872 4.104 4.536v10.836h4.14V42.724c0-4.5-3.06-7.776-7.128-7.776a6.56 6.56 0 00-5.4 2.808v-9.108h-4.14v25.38zm35.38-9.576c0-5.4-4.032-9.504-9.72-9.504s-9.72 4.068-9.72 9.72 4.032 9.72 9.72 9.72c3.888 0 7.56-1.836 8.964-5.4l-3.888-.648c-.9 1.332-2.628 2.268-4.824 2.268-3.168 0-5.256-1.944-5.652-4.824h15.048c.036-.396.072-.828.072-1.332m-9.72-5.904c2.592 0 4.536 1.656 5.22 3.996h-10.368c.684-2.412 2.628-3.996 5.148-3.996m17.086 15.48V42.976c0-2.376 1.152-3.708 3.672-3.708h2.376l-.36-3.96h-.792c-2.196 0-3.888.612-5.148 2.7l-.792-2.7h-3.096v18.72zm26.419-9.576c0-5.4-4.032-9.504-9.72-9.504s-9.72 4.068-9.72 9.72 4.032 9.72 9.72 9.72c3.888 0 7.56-1.836 8.964-5.4l-3.888-.648c-.9 1.332-2.628 2.268-4.824 2.268-3.168 0-5.256-1.944-5.652-4.824h15.048c.036-.396.072-.828.072-1.332m-9.72-5.904c2.592 0 4.536 1.656 5.22 3.996h-10.368c.684-2.412 2.628-3.996 5.148-3.996m17.194 7.56l.54-10.764v-6.696h-4.104v6.696l.54 10.764zm-1.512 8.28c1.44 0 2.556-1.116 2.556-2.52a2.52 2.52 0 00-2.556-2.556c-1.476 0-2.556 1.116-2.556 2.556 0 1.404 1.08 2.52 2.556 2.52"/><rect width="20" height="20" x="29" y="108.025" class="prefix__fade-animation prefix__contribution-graph" rx="2" style="--order:1"/><rect width="20" height="20" x="80" y="108.025" class="prefix__fade-animation prefix__contribution-graph" rx="2" style="--order:2"/><rect width="20" height="20" x="29" y="133.025" class="prefix__fade-animation prefix__contribution-graph" rx="2" style="--order:3"/><rect width="20" height="20" x="54.5" y="133.025" class="prefix__fade-animation" rx="2" style="--order:4" fill="var(--color-calendar-graph-day-level-2)"/><rect width="20" height="20" x="29" y="158.025" class="prefix__fade-animation prefix__contribution-graph" rx="2" style="--order:5"/><rect width="20" height="20" x="54.5" y="158.025" class="prefix__fade-animation prefix__contribution-graph" rx="2" style="--order:6"/><rect width="20" height="20" x="80" y="158.025" class="prefix__fade-animation prefix__contribution-graph" rx="2" style="--order:7"/><g id="prefix__icons-group" transform="translate(220, 75)"></g></svg>