<svg width="20" height="27" fill="none" xmlns="http://www.w3.org/2000/svg"><g clip-path="url(#prefix__clip0_12_145)"><path d="M6.441 20.88s-1.036.6.738.804c2.149.244 3.247.209 5.615-.238 0 0 .622.39 1.492.726-5.309 2.265-12.014-.131-7.845-1.291zM5.793 17.924s-1.163.857.612 1.04c2.296.236 4.109.255 7.245-.346 0 0 .434.438 1.117.677-6.419 1.869-13.568.147-8.974-1.37z" fill="#5382A1"/><path d="M11.261 12.91c1.308 1.5-.343 2.849-.343 2.849s3.32-1.707 1.796-3.845c-1.425-1.994-2.518-2.984 3.397-6.4 0 0-9.284 2.31-4.85 7.396z" fill="#F8981D"/><path d="M18.282 23.067s.767.63-.844 1.116c-3.065.924-12.754 1.203-15.446.037-.967-.42.847-1.001 1.418-1.123.595-.129.936-.105.936-.105-1.077-.754-6.956 1.482-2.987 2.123 10.824 1.748 19.73-.787 16.923-2.048zM6.94 14.862s-4.93 1.165-1.746 1.589c1.344.179 4.024.138 6.52-.07 2.04-.171 4.087-.536 4.087-.536s-.719.307-1.24.66c-5.004 1.311-14.673.702-11.89-.639 2.355-1.133 4.269-1.004 4.269-1.004zM15.78 19.782c5.089-2.632 2.736-5.162 1.094-4.82a3.815 3.815 0 00-.581.155s.149-.233.434-.334c3.248-1.137 5.747 3.353-1.048 5.132 0 0 .078-.07.102-.133z" fill="#5382A1"/><path d="M12.713 0s2.818 2.806-2.672 7.122c-4.402 3.462-1.004 5.435-.002 7.69-2.57-2.308-4.455-4.34-3.19-6.232C8.706 5.804 13.85 4.458 12.713 0z" fill="#F8981D"/><path d="M7.44 26.915c4.883.311 12.382-.173 12.56-2.473 0 0-.341.872-4.036 1.564-4.168.782-9.31.69-12.358.19 0 0 .624.514 3.833.72z" fill="#5382A1"/></g><defs><clipPath id="prefix__clip0_12_145"><path fill="#fff" d="M0 0h20v27H0z"/></clipPath></defs></svg>