<svg width="27" height="27" fill="none" xmlns="http://www.w3.org/2000/svg"><path fill="#F0DB4F" d="M0 0h27v27H0z"/><path d="M18.137 21.094c.544.888 1.252 1.54 2.503 1.54 1.051 0 1.723-.525 1.723-1.25 0-.87-.69-1.179-1.847-1.685l-.635-.272c-1.83-.78-3.047-1.757-3.047-3.823 0-1.903 1.45-3.352 3.716-3.352 1.613 0 2.773.562 3.609 2.032l-1.976 1.268c-.435-.78-.904-1.087-1.633-1.087-.743 0-1.214.472-1.214 1.087 0 .762.471 1.07 1.56 1.541l.634.272c2.156.924 3.373 1.867 3.373 3.986 0 2.284-1.794 3.535-4.204 3.535-2.357 0-3.879-1.123-4.624-2.594l2.062-1.198zm-8.963.22c.399.707.762 1.305 1.633 1.305.834 0 1.36-.326 1.36-1.595v-8.627h2.537v8.662c0 2.627-1.54 3.823-3.789 3.823-2.031 0-3.208-1.052-3.806-2.318l2.065-1.25z" fill="#000"/></svg>