<svg width="27" height="27" fill="none" xmlns="http://www.w3.org/2000/svg"><g clip-path="url(#prefix__clip0_12_86)"><path d="M13.338.001a18.77 18.77 0 00-3.111.263C7.47.746 6.97 1.754 6.97 3.614v2.455h6.51v.818H4.527c-1.892 0-3.55 1.125-4.068 3.265-.598 2.453-.624 3.986 0 6.547.463 1.907 1.569 3.265 3.461 3.265h2.24V17.02c0-2.127 1.859-4.003 4.067-4.003h6.504a3.263 3.263 0 003.257-3.272V3.612c0-1.746-1.489-3.056-3.257-3.349A20.536 20.536 0 0013.337 0v.001zM9.816 1.976a1.229 1.229 0 010 2.455 1.222 1.222 0 01-1.222-1.224c0-.679.547-1.231 1.222-1.231z" fill="url(#prefix__paint0_linear_12_86)"/><path d="M20.799 6.885v2.861c0 2.218-1.901 4.085-4.069 4.085h-6.504c-1.781 0-3.256 1.508-3.256 3.272v6.133c0 1.746 1.534 2.773 3.256 3.273 2.062.6 4.04.708 6.504 0 1.64-.47 3.257-1.415 3.257-3.273v-2.455h-6.504v-.818h9.761c1.893 0 2.599-1.306 3.257-3.265.68-2.018.65-3.96 0-6.547-.468-1.864-1.361-3.265-3.257-3.265h-2.443l-.002-.001zM17.14 22.42a1.227 1.227 0 010 2.455 1.229 1.229 0 010-2.455z" fill="url(#prefix__paint1_linear_12_86)"/></g><defs><linearGradient id="prefix__paint0_linear_12_86" x1="0" y1=".001" x2="14.883" y2="12.817" gradientUnits="userSpaceOnUse"><stop stop-color="#5A9FD4"/><stop offset="1" stop-color="#306998"/></linearGradient><linearGradient id="prefix__paint1_linear_12_86" x1="16.987" y1="23.445" x2="11.667" y2="15.921" gradientUnits="userSpaceOnUse"><stop stop-color="#FFD43B"/><stop offset="1" stop-color="#FFE873"/></linearGradient><clipPath id="prefix__clip0_12_86"><path fill="#fff" d="M0 0h27v27H0z"/></clipPath></defs></svg>