<svg width="27" height="21" fill="none" xmlns="http://www.w3.org/2000/svg"><g clip-path="url(#prefix__clip0_11_35)"><path d="M23.235 11.633a5.562 5.562 0 00-2.447.57c-.253-.501-.506-.939-.549-1.266-.047-.38-.105-.612-.047-1.065.058-.454.322-1.097.322-1.15-.006-.047-.058-.28-.601-.284-.544-.006-1.013.105-1.066.247-.053.143-.158.47-.227.807-.094.496-1.086 2.252-1.65 3.175-.185-.359-.343-.675-.374-.928-.048-.38-.106-.612-.048-1.066.058-.453.322-1.096.322-1.15-.006-.047-.058-.279-.601-.284-.544-.005-1.013.106-1.066.248-.052.142-.11.48-.226.807-.111.327-1.43 3.259-1.772 4.023-.174.39-.327.702-.438.913-.11.21-.005.015-.016.037l-.147.28v.004c-.074.132-.153.259-.19.259-.027 0-.08-.354.01-.839.195-1.018.67-2.605.665-2.663 0-.026.09-.306-.306-.448-.385-.142-.522.095-.554.095-.031 0-.058.084-.058.084s.427-1.787-.817-1.787c-.78 0-1.857.849-2.39 1.624l-1.813.991c-.29.158-.59.327-.876.48l-.058-.063c-1.508-1.609-4.297-2.748-4.181-4.91.042-.786.316-2.858 5.357-5.368 4.13-2.057 7.436-1.493 8.01-.237.818 1.793-1.766 5.125-6.058 5.605-1.635.185-2.495-.448-2.711-.685-.227-.248-.258-.259-.343-.211-.137.074-.053.295 0 .427.127.332.654.923 1.55 1.218.786.258 2.706.4 5.026-.496 2.6-1.007 4.63-3.802 4.034-6.138C16.295.111 12.351-.67 8.622.654c-2.22.79-4.625 2.025-6.354 3.644C.21 6.218-.116 7.894.02 8.59c.48 2.484 3.902 4.103 5.274 5.3-.069.037-.132.074-.19.106-.686.337-3.296 1.703-3.95 3.148-.738 1.635.116 2.81.685 2.969 1.762.49 3.565-.39 4.54-1.84.971-1.45.855-3.333.407-4.193l-.016-.032.538-.316c.348-.206.69-.396.991-.559-.168.459-.29 1.002-.353 1.793-.074.928.306 2.13.807 2.605.221.206.485.211.649.211.58 0 .843-.48 1.133-1.055.359-.701.675-1.513.675-1.513s-.395 2.199.686 2.199c.395 0 .79-.512.97-.775v.005l.032-.053c.042-.063.063-.1.063-.1v-.01c.158-.275.512-.902 1.039-1.941.68-1.34 1.334-3.016 1.334-3.016s.063.41.259 1.086c.116.4.369.838.564 1.265-.158.222-.253.348-.253.348l.005.006c-.127.168-.269.348-.417.527-.537.643-1.18 1.376-1.265 1.587-.1.248-.08.433.116.58.142.106.395.127.664.106A2.96 2.96 0 0016 16.8c.263-.095.564-.237.854-.448.527-.39.849-.944.817-1.682-.015-.406-.147-.807-.31-1.187.047-.068.094-.137.142-.21.833-1.219 1.476-2.558 1.476-2.558s.063.411.259 1.086c.1.343.3.717.48 1.086-.781.638-1.271 1.377-1.44 1.862-.311.896-.069 1.302.39 1.397.206.043.5-.052.722-.147a3.27 3.27 0 00.913-.47c.527-.39 1.033-.933 1.007-1.666a3.197 3.197 0 00-.227-.986c.665-.274 1.524-.433 2.616-.3 2.346.273 2.81 1.74 2.72 2.351-.089.612-.58.95-.743 1.055-.163.1-.216.137-.2.21.021.111.095.106.237.085.195-.032 1.234-.5 1.276-1.63.064-1.45-1.313-3.032-3.754-3.016zM5.136 17.735c-.775.849-1.866 1.17-2.33.896-.502-.29-.306-1.54.648-2.442.58-.548 1.334-1.054 1.83-1.365.11-.069.28-.17.48-.29.031-.022.053-.032.053-.032.037-.021.079-.048.12-.074.354 1.287.017 2.415-.8 3.307zm5.67-3.855c-.27.659-.84 2.352-1.182 2.257-.295-.08-.475-1.36-.058-2.627.21-.637.66-1.397.923-1.692.427-.475.891-.633 1.007-.438.137.253-.522 2.088-.69 2.5zm4.677 2.236c-.116.058-.222.1-.27.068-.036-.02.048-.1.048-.1s.586-.628.818-.918c.131-.168.29-.364.459-.585v.063c0 .76-.728 1.266-1.055 1.472zm3.607-.823c-.084-.063-.074-.258.21-.87.111-.243.365-.649.802-1.034.053.159.085.311.08.454-.006.949-.68 1.302-1.092 1.45z" fill="#CF649A"/></g><defs><clipPath id="prefix__clip0_11_35"><path fill="#fff" d="M0 0h27v20.25H0z"/></clipPath></defs></svg>