<svg width="27" height="27" fill="none" xmlns="http://www.w3.org/2000/svg"><g clip-path="url(#prefix__clip0_12_128)"><path d="M26.998 7.478a38.147 38.147 0 00-.012-.814 11.834 11.834 0 00-.156-1.773 5.978 5.978 0 00-.556-1.687A5.666 5.666 0 0023.795.726 5.982 5.982 0 0022.11.17a11.792 11.792 0 00-1.774-.156 38.969 38.969 0 00-.814-.012C19.198 0 18.876 0 18.554 0H8.446c-.323 0-.645 0-.968.002A37.448 37.448 0 006.22.03c-.444.022-.89.06-1.33.14-.445.08-.867.198-1.277.368A5.684 5.684 0 00.726 3.204 6.001 6.001 0 00.17 4.891C.065 5.475.03 6.072.014 6.664a38.99 38.99 0 00-.012.814C0 7.801 0 8.123 0 8.446v10.108c0 .323 0 .645.002.968.002.271.004.542.012.814.016.592.051 1.189.156 1.773.107.594.281 1.147.556 1.687a5.664 5.664 0 002.479 2.479c.539.274 1.091.448 1.685.555.585.105 1.182.14 1.774.156.271.007.543.01.815.012.322.002.644.002.967.002h10.108c.323 0 .645 0 .968-.002.271-.002.542-.005.814-.012a11.84 11.84 0 001.774-.156 5.98 5.98 0 001.685-.556 5.665 5.665 0 002.48-2.478c.274-.54.448-1.093.555-1.687.105-.584.14-1.182.156-1.773.007-.272.01-.543.012-.814.002-.323.002-.645.002-.968V8.446c0-.323 0-.645-.002-.968z" fill="#F05138"/><path d="M21.394 16.666l-.002-.002c.03-.102.061-.202.087-.306 1.12-4.465-1.614-9.744-6.242-12.523 2.028 2.75 2.925 6.08 2.128 8.992-.071.26-.156.51-.251.751a6.423 6.423 0 00-.405-.24s-4.604-2.841-9.593-7.87c-.131-.131 2.66 3.99 5.829 7.338-1.493-.838-5.653-3.864-8.287-6.275.324.54.709 1.06 1.132 1.56 2.199 2.789 5.067 6.23 8.503 8.873-2.414 1.477-5.825 1.591-9.222 0a13.929 13.929 0 01-2.36-1.408 14.138 14.138 0 006.346 5.442c3.214 1.382 6.41 1.288 8.79.023l-.002.003.037-.021c.097-.053.194-.107.289-.163 1.144-.594 3.403-1.196 4.615 1.163.297.578.927-2.482-1.392-5.337z" fill="#fff"/></g><defs><clipPath id="prefix__clip0_12_128"><path fill="#fff" d="M0 0h27v27H0z"/></clipPath></defs></svg>