<svg width="27" height="27" fill="none" xmlns="http://www.w3.org/2000/svg"><g clip-path="url(#prefix__clip0_3_10)"><rect width="27" height="27" rx="1" fill="#fff"/><path fill-rule="evenodd" clip-rule="evenodd" d="M1.012 0h24.976C26.547 0 27 .453 27 1.012v24.976c0 .559-.453 1.012-1.012 1.012H1.012C.453 27 0 26.547 0 25.988V1.012C0 .453.453 0 1.012 0zM15.01 14.364V12.15H5.4v2.214h3.43v9.86h2.732v-9.86h3.447zm1.089 9.6c.44.224.961.393 1.563.505.6.112 1.235.168 1.9.168.65 0 1.267-.061 1.852-.185a4.548 4.548 0 001.537-.61c.44-.284.789-.654 1.046-1.112.257-.457.385-1.023.385-1.697 0-.488-.073-.916-.22-1.284a2.995 2.995 0 00-.636-.98 4.643 4.643 0 00-.995-.771 10.699 10.699 0 00-1.308-.644 16.52 16.52 0 01-.957-.425 4.85 4.85 0 01-.72-.421 1.84 1.84 0 01-.457-.455.953.953 0 01-.161-.543c0-.185.048-.352.144-.501.096-.149.231-.277.406-.383.175-.107.39-.19.644-.249s.536-.088.847-.088a5.698 5.698 0 011.474.206c.254.07.5.159.74.265.24.107.462.23.665.37v-2.517a6.63 6.63 0 00-1.35-.35 11.063 11.063 0 00-1.682-.113 7.85 7.85 0 00-1.829.206 4.666 4.666 0 00-1.52.645 3.225 3.225 0 00-1.038 1.115c-.254.452-.38.992-.38 1.621 0 .803.232 1.488.698 2.055.466.567 1.173 1.047 2.121 1.44.373.151.72.3 1.042.446.322.146.6.297.834.455.235.157.42.328.555.513a1.042 1.042 0 01.076 1.116 1.123 1.123 0 01-.385.387c-.172.11-.387.195-.644.257a3.895 3.895 0 01-.902.093 5.22 5.22 0 01-3.345-1.23v2.695z" fill="#3178C6"/></g><defs><clipPath id="prefix__clip0_3_10"><rect width="27" height="27" rx="1" fill="#fff"/></clipPath></defs></svg>