<svg width="62" height="62" viewBox="0 0 62 62" fill="none" xmlns="http://www.w3.org/2000/svg">
<g clip-path="url(#clip0_1013_109)">
<rect x="2.38525" y="22.4702" width="56.2182" height="36.2397" fill="white"/>
<path d="M2.90625 0C1.29683 0 0 1.29683 0 2.90625V59.0938C0 60.7032 1.29683 62 2.90625 62H59.0938C60.7032 62 62 60.7032 62 59.0938V2.90625C62 1.29683 60.7032 0 59.0938 0H2.90625ZM47.7607 25.1875C49.3417 25.1875 50.7418 25.2831 51.9637 25.4742C53.1162 25.6469 54.2472 25.9414 55.3376 26.3526V32.7024C54.8142 32.3404 54.2581 32.0282 53.6765 31.7698C53.0767 31.5 52.4576 31.2754 51.8242 31.0982C50.6245 30.7639 49.3858 30.5901 48.1404 30.5815C47.3654 30.5815 46.6602 30.6538 46.0247 30.8037C45.4583 30.9248 44.9149 31.1359 44.4152 31.4288C43.9761 31.6975 43.6402 32.0204 43.4 32.395C43.1584 32.7725 43.0326 33.2126 43.0383 33.6608C43.0383 34.1672 43.1752 34.6244 43.4413 35.0274C43.71 35.4304 44.0923 35.8127 44.5858 36.1744C45.0792 36.5361 45.6785 36.8874 46.3837 37.2336C47.089 37.5823 47.8872 37.9414 48.7759 38.3083C49.9901 38.8172 51.0802 39.3597 52.0464 39.9306C53.0126 40.5041 53.8418 41.1525 54.5342 41.8758C55.2265 42.5966 55.7535 43.4207 56.1203 44.3481C56.4872 45.2755 56.6732 46.3527 56.6732 47.585C56.6732 49.2822 56.3503 50.7108 55.7096 51.863C55.0836 52.9993 54.1853 53.9625 53.0952 54.6659C51.9203 55.4109 50.6181 55.9329 49.2538 56.2056C47.7917 56.5156 46.2494 56.6706 44.6297 56.6706C43.0355 56.6776 41.4441 56.5357 39.8763 56.2469C38.5199 56.0123 37.2044 55.5834 35.9703 54.9733V48.1792C38.3051 50.1661 41.2669 51.264 44.3326 51.2792C45.1928 51.2792 45.9446 51.2017 46.5853 51.0467C47.2285 50.8917 47.7632 50.6747 48.1947 50.4008C48.6235 50.1218 48.9438 49.7963 49.1582 49.4192C49.3952 48.98 49.503 48.4828 49.4692 47.9849C49.4354 47.4871 49.2613 47.009 48.9671 46.6059C48.5833 46.098 48.1138 45.6609 47.5798 45.3143C46.9176 44.8753 46.2203 44.4917 45.4951 44.1672C44.6355 43.7747 43.7682 43.3992 42.8937 43.0409C40.5222 42.0515 38.7552 40.8399 37.5901 39.4113C36.4276 37.9827 35.8438 36.2545 35.8438 34.2318C35.8438 32.6456 36.1615 31.2842 36.797 30.1449C37.4325 29.0057 38.2953 28.0679 39.3907 27.3317C40.5492 26.5674 41.8354 26.017 43.1882 25.7067C44.6864 25.3535 46.2213 25.1792 47.7607 25.1875ZM8.71875 25.6732H33.4232V31.2687H24.5572V56.1875H17.5382V31.2687H8.71875V25.6732Z" fill="#007ACC"/>
</g>
<defs>
<clipPath id="clip0_1013_109">
<rect width="62" height="62" fill="white"/>
</clipPath>
</defs>
</svg>
